<?xml version="1.0" ?><svg enable-background="new 0 0 504 504" id="Layer_1" version="1.1" viewBox="0 0 504 504" xml:space="preserve" xmlns="http://www.w3.org/2000/svg" xmlns:xlink="http://www.w3.org/1999/xlink"><path d="M459.7,256.7c-9.2,58.5-27.1,75.6-58.8,114.9c-31.7,33.3-77.3,88.9-141.9,85.8  c-58.5-9.2-75.6-27.1-114.9-58.8c-33.3-31.7-88.9-77.3-85.8-141.9c9.2-58.5,27.1-75.6,58.8-114.9C148.8,108.5,194.4,53,259,56  c58.5,9.2,75.6,27.1,114.9,58.8C407.2,146.5,462.8,192.1,459.7,256.7z" fill="#3765AF"/><g><path d="M352.4,235.2c-1.4,0-2.8,0-4.1,0.3c-5.2-13.4-15.5-24.5-28.6-30.7c0-0.7,0.3-1.7,0.3-2.8   c0-11.4-9.3-20.7-20.7-20.7c-4.8,0-9.3,1.7-12.7,4.5v14.1v10v8.3c3.4,2.8,7.9,4.5,12.7,4.5c6.9,0,13.4-3.4,16.9-9   c10.7,5.2,18.9,14.5,23.1,25.5c-4.5,3.8-7.6,9.6-7.6,15.8c0,6.5,3.1,12.4,7.9,16.2c-4.1,11.4-12.4,20.7-23.4,26.2   c-3.8-5.5-10-9-16.9-9c-4.8,0-9.3,1.7-12.7,4.5v8.3v10v14.1c3.4,2.8,7.9,4.5,12.7,4.5c11.4,0,20.7-9.3,20.7-20.7c0-1,0-1.7-0.3-2.8   c13.1-6.2,23.4-17.2,28.6-31c1.4,0.3,2.8,0.3,4.1,0.3c11.4,0,20.7-9.3,20.7-20.7C373,244.5,363.7,235.2,352.4,235.2z" fill="#FFFFFF"/><path d="M155.4,176.3L155,337.1l119.9,21.7V154.6L155.4,176.3z M222.9,296.8c-9.6,7.2-22.7,4.1-33.1,0   c0-5.9-0.3-12.1-0.3-17.9c6.5,4.8,16.5,12.1,24.1,5.5c6.2-10.3-5.9-16.9-12.7-21.7c-14.8-9-15.5-33.8-1-43.1   c8.6-5.2,18.6-3.8,27.9-2.4c0,5.5,0.3,11.4,0.3,16.9c-7.9-2.4-17.6-7.2-24.1,0.3c-4.5,11.7,9.6,15.8,16.5,22   C233.9,264.8,235.3,286.9,222.9,296.8z" fill="#FFFFFF"/></g></svg>